<svg width="512" height="512" viewBox="0 0 512 512" fill="none" xmlns="http://www.w3.org/2000/svg">
<path d="M362.688 453.333H320C315.757 453.333 311.687 451.647 308.686 448.646C305.686 445.646 304 441.576 304 437.333C304 433.089 305.686 429.02 308.686 426.019C311.687 423.018 315.757 421.333 320 421.333H362.688C366.187 421.333 369.652 420.644 372.885 419.304C376.117 417.964 379.054 416 381.527 413.524C383.999 411.049 385.96 408.11 387.296 404.876C388.632 401.641 389.317 398.176 389.312 394.676C389.31 390.435 390.991 386.366 393.988 383.364C396.984 380.362 401.049 378.672 405.291 378.666H405.312C409.554 378.665 413.623 380.349 416.623 383.347C419.624 386.346 421.311 390.414 421.312 394.656C421.321 402.359 419.811 409.989 416.868 417.108C413.926 424.228 409.609 430.698 404.164 436.147C398.719 441.597 392.254 445.92 385.137 448.869C378.02 451.818 370.392 453.334 362.688 453.333Z" fill="#C62E85"/>
<path d="M405.333 272C401.09 271.999 397.021 270.313 394.021 267.312C391.021 264.312 389.334 260.243 389.333 256V192C389.333 156.638 375.286 122.724 350.281 97.7189C325.276 72.7141 291.362 58.6665 256 58.6665C220.638 58.6665 186.724 72.7141 161.719 97.7189C136.714 122.724 122.667 156.638 122.667 192V234.667C122.667 238.91 120.981 242.98 117.98 245.98C114.98 248.981 110.91 250.667 106.667 250.667C102.423 250.667 98.3536 248.981 95.353 245.98C92.3524 242.98 90.6667 238.91 90.6667 234.667V192C90.6667 148.151 108.086 106.098 139.092 75.0915C170.098 44.0855 212.151 26.6665 256 26.6665C299.849 26.6665 341.902 44.0855 372.908 75.0915C403.914 106.098 421.333 148.151 421.333 192V256C421.332 260.243 419.646 264.312 416.646 267.312C413.645 270.313 409.576 271.999 405.333 272Z" fill="#C62E85"/>
<path d="M192 218.666C206.728 218.666 218.667 206.727 218.667 192C218.667 177.272 206.728 165.333 192 165.333C177.272 165.333 165.333 177.272 165.333 192C165.333 206.727 177.272 218.666 192 218.666Z" fill="#C62E85"/>
<path d="M320 218.666C334.728 218.666 346.667 206.727 346.667 192C346.667 177.272 334.728 165.333 320 165.333C305.272 165.333 293.333 177.272 293.333 192C293.333 206.727 305.272 218.666 320 218.666Z" fill="#C62E85"/>
<path d="M85.3334 336C69.7788 335.984 54.8659 329.798 43.8672 318.799C32.8685 307.801 26.6825 292.888 26.6667 277.333V234.667C26.6825 219.112 32.8685 204.199 43.8672 193.201C54.8659 182.202 69.7788 176.016 85.3334 176H106.667C110.91 176.001 114.979 177.687 117.979 180.688C120.979 183.688 122.666 187.757 122.667 192V298.667C122.655 308.564 118.717 318.053 111.719 325.052C104.72 332.051 95.2311 335.988 85.3334 336ZM85.3334 208C78.2629 208.007 71.484 210.818 66.4844 215.818C61.4849 220.817 58.6732 227.596 58.6667 234.667V277.333C58.6732 284.404 61.4849 291.183 66.4844 296.182C71.484 301.182 78.2629 303.993 85.3334 304C86.747 303.997 88.102 303.435 89.1016 302.435C90.1012 301.435 90.664 300.08 90.6667 298.667V208H85.3334Z" fill="#C62E85"/>
<path d="M426.667 336C416.769 335.988 407.28 332.051 400.281 325.052C393.283 318.053 389.345 308.564 389.333 298.667V192C389.335 187.757 391.021 183.688 394.021 180.688C397.021 177.687 401.09 176.001 405.333 176H426.667C442.221 176.016 457.134 182.202 468.133 193.201C479.132 204.199 485.318 219.112 485.333 234.667V277.333C485.318 292.888 479.132 307.801 468.133 318.799C457.134 329.798 442.221 335.984 426.667 336ZM421.333 208V298.667C421.336 300.08 421.899 301.435 422.898 302.435C423.898 303.435 425.253 303.997 426.667 304C433.737 303.993 440.516 301.182 445.516 296.182C450.515 291.183 453.327 284.404 453.333 277.333V234.667C453.327 227.596 450.515 220.817 445.516 215.818C440.516 210.818 433.737 208.007 426.667 208H421.333Z" fill="#C62E85"/>
<path d="M256 350.219C243.712 350.241 231.693 346.615 221.468 339.8C211.243 332.985 203.271 323.288 198.563 311.937C196.93 308.02 196.92 303.614 198.536 299.69C200.151 295.765 203.26 292.643 207.177 291.01C211.095 289.378 215.5 289.368 219.425 290.984C223.349 292.599 226.471 295.707 228.104 299.625C230.4 305.131 234.273 309.835 239.238 313.144C244.202 316.453 250.034 318.219 256 318.219C261.966 318.219 267.798 316.453 272.762 313.144C277.727 309.835 281.6 305.131 283.896 299.625C284.704 297.685 285.887 295.924 287.376 294.441C288.865 292.958 290.632 291.783 292.575 290.984C294.519 290.184 296.6 289.774 298.702 289.779C300.803 289.783 302.883 290.202 304.823 291.01C306.763 291.819 308.524 293.001 310.007 294.491C311.49 295.98 312.664 297.747 313.464 299.69C314.264 301.633 314.674 303.715 314.669 305.816C314.664 307.918 314.246 309.998 313.437 311.937C308.727 323.286 300.754 332.982 290.53 339.797C280.305 346.611 268.288 350.238 256 350.219Z" fill="#C62E85"/>
<path d="M309.333 469.333C327.006 469.333 341.333 455.006 341.333 437.333C341.333 419.66 327.006 405.333 309.333 405.333C291.66 405.333 277.333 419.66 277.333 437.333C277.333 455.006 291.66 469.333 309.333 469.333Z" fill="#C62E85"/>
</svg>
